<svg width="464" height="346" viewBox="0 0 464 346" fill="none" xmlns="http://www.w3.org/2000/svg">
<g filter="url(#filter0_f_399_20410)">
<rect x="63.8848" y="82.7775" width="335.878" height="218.184" rx="6.74271" fill="black" fill-opacity="0.15"/>
</g>
<path d="M32 304.299C32 303.802 32.4025 303.4 32.899 303.4H431.101C431.598 303.4 432 303.802 432 304.299V305.808C432 309.78 428.78 313 424.808 313H39.1922C35.2201 313 32 309.78 32 305.808V304.299Z" fill="#5C8A3D"/>
<path d="M203.646 304.086H260.353V306.216C260.353 307.209 259.548 308.014 258.555 308.014H205.445C204.452 308.014 203.646 307.209 203.646 306.216V304.086Z" fill="white"/>
<g filter="url(#filter1_d_399_20410)">
<rect x="63.8877" y="82.9957" width="335.878" height="218.184" rx="6.74271" fill="white"/>
<rect x="62.3942" y="81.5022" width="338.865" height="221.171" rx="8.2362" stroke="#5C8A3D" stroke-width="2.98699"/>
</g>
<g filter="url(#filter2_d_399_20410)">
<rect x="66.2656" y="23" width="331.596" height="34.7377" rx="6.74271" fill="#5E8E3E"/>
</g>
<g filter="url(#filter3_d_399_20410)">
<path d="M262.213 129.383C270.537 129.383 277.286 122.582 277.286 114.193V95.7473H247.141V114.193C247.141 122.582 253.889 129.383 262.213 129.383Z" fill="#9EBD59"/>
<path d="M322.496 129.383C330.821 129.383 337.569 122.582 337.569 114.193V95.7473H307.424V114.193C307.424 122.582 314.172 129.383 322.496 129.383Z" fill="#9EBD59"/>
<path d="M382.789 129.383C391.114 129.383 397.862 122.582 397.862 114.193V95.7473H367.717V114.193C367.717 122.582 374.465 129.383 382.789 129.383Z" fill="#9EBD59"/>
<path d="M81.3381 129.383C89.6624 129.383 96.4106 122.582 96.4106 114.193V95.7473H66.2656V114.193C66.2656 122.582 73.0138 129.383 81.3381 129.383Z" fill="#9EBD59"/>
<path d="M141.629 129.383C149.953 129.383 156.702 122.582 156.702 114.193V95.7473H126.557V114.193C126.557 122.582 133.305 129.383 141.629 129.383Z" fill="#9EBD59"/>
<path d="M201.919 129.383C210.243 129.383 216.992 122.582 216.992 114.193V95.7473H186.847V114.193C186.847 122.582 193.595 129.383 201.919 129.383Z" fill="#9EBD59"/>
<path d="M292.352 129.383C300.676 129.383 307.424 122.582 307.424 114.193V95.7473H277.279V114.193C277.279 122.582 284.027 129.383 292.352 129.383Z" fill="#5E8E3E"/>
<path d="M51.1936 129.383C59.5178 129.383 66.266 122.582 66.266 114.193V95.7473H36.1211V114.193C36.1211 122.582 42.8693 129.383 51.1936 129.383Z" fill="#5E8E3E"/>
<path d="M352.641 129.383C360.965 129.383 367.713 122.582 367.713 114.193V95.7473H337.568V114.193C337.568 122.582 344.317 129.383 352.641 129.383Z" fill="#5E8E3E"/>
<path d="M412.936 129.383C421.26 129.383 428.008 122.582 428.008 114.193V95.7473H397.863V114.193C397.863 122.582 404.611 129.383 412.936 129.383Z" fill="#5E8E3E"/>
<path d="M111.484 129.383C119.808 129.383 126.556 122.582 126.556 114.193V95.7473H96.4111V114.193C96.4111 122.582 103.159 129.383 111.484 129.383Z" fill="#5E8E3E"/>
<path d="M171.774 128.748C180.098 128.748 186.846 122.076 186.846 113.845V95.7473H156.701V113.845C156.701 122.076 163.449 128.748 171.774 128.748Z" fill="#5E8E3E"/>
<path d="M232.061 129.383C240.385 129.383 247.133 122.582 247.133 114.193V95.7473H216.988V114.193C216.988 122.582 223.736 129.383 232.061 129.383Z" fill="#5E8E3E"/>
<path d="M219.307 34.2756H244.814L247.133 95.748H216.988L219.307 34.2756Z" fill="#9EBD59"/>
<path d="M244.817 34.2755H270.325L277.281 95.7478H247.136L244.817 34.2755Z" fill="#D8EF55"/>
<path d="M295.828 34.2756H321.335L337.567 95.748H307.422L295.828 34.2756Z" fill="#D8EF55"/>
<path d="M346.846 34.2755H372.353L397.86 95.7478H367.715L346.846 34.2755Z" fill="#D8EF55"/>
<path d="M270.325 34.2755H295.832L307.427 95.7478H277.282L270.325 34.2755Z" fill="#9EBD59"/>
<path d="M321.337 34.2755H346.844L367.714 95.7478H337.569L321.337 34.2755Z" fill="#9EBD59"/>
<path d="M372.351 34.2755H397.858L428.003 95.7478H397.858L372.351 34.2755Z" fill="#9EBD59"/>
<path d="M219.312 34.2755H193.804L186.848 95.7478H216.993L219.312 34.2755Z" fill="#D8EF55"/>
<path d="M168.294 34.2755H142.787L126.555 95.7478H156.7L168.294 34.2755Z" fill="#D8EF55"/>
<path d="M117.28 34.2755H91.773L66.2658 95.7478H96.4107L117.28 34.2755Z" fill="#D8EF55"/>
<path d="M193.803 34.2755H168.295L156.701 95.7478H186.846L193.803 34.2755Z" fill="#9EBD59"/>
<path d="M142.789 34.2755H117.282L96.4123 95.7478H126.557L142.789 34.2755Z" fill="#9EBD59"/>
<path d="M91.7744 34.2755H66.2672L36.1222 95.7478H66.2672L91.7744 34.2755Z" fill="#9EBD59"/>
</g>
<circle cx="208.907" cy="247.919" r="12.2302" fill="black"/>
<circle cx="251.128" cy="247.919" r="12.2302" fill="black"/>
<path fill-rule="evenodd" clip-rule="evenodd" d="M192.535 163.816H173.6V153.093H195.046C199.284 153.093 202.795 156.382 203.071 160.611L203.52 167.502H272.497C277.913 167.502 281.78 172.746 280.18 177.919L266.76 221.311C265.718 224.68 262.603 226.977 259.077 226.977H205.845C201.716 226.977 198.258 223.851 197.844 219.743L193.154 173.307L192.535 163.816ZM204.428 178.224L208.268 216.255H257.1L268.862 178.224H204.428Z" fill="black"/>
<path fill-rule="evenodd" clip-rule="evenodd" d="M321.629 239.525L338 233.799L294 210L306.827 257.761L316.433 243.518L327.934 258L333.13 254.007L321.629 239.525Z" fill="#E5FBBA" stroke="black" stroke-width="3" stroke-linejoin="round"/>
<defs>
<filter id="filter0_f_399_20410" x="18.9334" y="37.8261" width="425.781" height="308.087" filterUnits="userSpaceOnUse" color-interpolation-filters="sRGB">
<feFlood flood-opacity="0" result="BackgroundImageFix"/>
<feBlend mode="normal" in="SourceGraphic" in2="BackgroundImageFix" result="shape"/>
<feGaussianBlur stdDeviation="22.4757" result="effect1_foregroundBlur_399_20410"/>
</filter>
<filter id="filter1_d_399_20410" x="60.9004" y="80.0088" width="342.302" height="224.608" filterUnits="userSpaceOnUse" color-interpolation-filters="sRGB">
<feFlood flood-opacity="0" result="BackgroundImageFix"/>
<feColorMatrix in="SourceAlpha" type="matrix" values="0 0 0 0 0 0 0 0 0 0 0 0 0 0 0 0 0 0 127 0" result="hardAlpha"/>
<feOffset dx="0.449514" dy="0.449514"/>
<feColorMatrix type="matrix" values="0 0 0 0 1 0 0 0 0 1 0 0 0 0 1 0 0 0 0.2 0"/>
<feBlend mode="normal" in2="BackgroundImageFix" result="effect1_dropShadow_399_20410"/>
<feBlend mode="normal" in="SourceGraphic" in2="effect1_dropShadow_399_20410" result="shape"/>
</filter>
<filter id="filter2_d_399_20410" x="66.2656" y="23" width="332.046" height="35.1872" filterUnits="userSpaceOnUse" color-interpolation-filters="sRGB">
<feFlood flood-opacity="0" result="BackgroundImageFix"/>
<feColorMatrix in="SourceAlpha" type="matrix" values="0 0 0 0 0 0 0 0 0 0 0 0 0 0 0 0 0 0 127 0" result="hardAlpha"/>
<feOffset dx="0.449514" dy="0.449514"/>
<feColorMatrix type="matrix" values="0 0 0 0 1 0 0 0 0 1 0 0 0 0 1 0 0 0 0.2 0"/>
<feBlend mode="normal" in2="BackgroundImageFix" result="effect1_dropShadow_399_20410"/>
<feBlend mode="normal" in="SourceGraphic" in2="effect1_dropShadow_399_20410" result="shape"/>
</filter>
<filter id="filter3_d_399_20410" x="0.277264" y="0.821272" width="463.574" height="166.795" filterUnits="userSpaceOnUse" color-interpolation-filters="sRGB">
<feFlood flood-opacity="0" result="BackgroundImageFix"/>
<feColorMatrix in="SourceAlpha" type="matrix" values="0 0 0 0 0 0 0 0 0 0 0 0 0 0 0 0 0 0 127 0" result="hardAlpha"/>
<feOffset dy="2.38959"/>
<feGaussianBlur stdDeviation="17.9219"/>
<feColorMatrix type="matrix" values="0 0 0 0 0 0 0 0 0 0 0 0 0 0 0 0 0 0 0.15 0"/>
<feBlend mode="normal" in2="BackgroundImageFix" result="effect1_dropShadow_399_20410"/>
<feBlend mode="normal" in="SourceGraphic" in2="effect1_dropShadow_399_20410" result="shape"/>
</filter>
</defs>
</svg>
